HIERARCHY
ROOT Hips
{
	OFFSET 0.000000 0.000000 0.000000
	CHANNELS 6 Xposition Yposition Zposition Zrotation Yrotation Xrotation 
	JOINT LHipJoint
	{
		OFFSET 0.000000 0.000000 0.000000
		CHANNELS 3 Zrotation Yrotation Xrotation
		JOINT LeftUpLeg
		{
			OFFSET 1.363060 -1.794630 0.839290
			CHANNELS 3 Zrotation Yrotation Xrotation
			JOINT LeftLeg
			{
				OFFSET 2.448110 -6.726130 0.000000
				CHANNELS 3 Zrotation Yrotation Xrotation
				JOINT LeftFoot
				{
					OFFSET 2.562200 -7.039590 0.000000
					CHANNELS 3 Zrotation Yrotation Xrotation
					JOINT LeftToeBase
					{
						OFFSET 0.157640 -0.433110 2.322550
						CHANNELS 3 Zrotation Yrotation Xrotation
						End Site
						{
							OFFSET 0.000000 0.000000 0.000000
						}
					}
				}
			}
		}
	}
	JOINT RHipJoint
	{
		OFFSET 0.000000 0.000000 0.000000
		CHANNELS 3 Zrotation Yrotation Xrotation
		JOINT RightUpLeg
		{
			OFFSET -1.305520 -1.794630 0.839290
			CHANNELS 3 Zrotation Yrotation Xrotation
			JOINT RightLeg
			{
				OFFSET -2.542530 -6.985550 0.000000
				CHANNELS 3 Zrotation Yrotation Xrotation
				JOINT RightFoot
				{
					OFFSET -2.568260 -7.056230 0.000000
					CHANNELS 3 Zrotation Yrotation Xrotation
					JOINT RightToeBase
					{
						OFFSET -0.164730 -0.452590 2.363150
						CHANNELS 3 Zrotation Yrotation Xrotation
						End Site
						{
							OFFSET 0.000000 0.000000 0.000000
						}
					}
				}
			}
		}
	}
	JOINT LowerBack
	{
		OFFSET 0.000000 0.000000 0.000000
		CHANNELS 3 Zrotation Yrotation Xrotation
		JOINT Spine
		{
			OFFSET 0.028270 2.035590 -0.193380
			CHANNELS 3 Zrotation Yrotation Xrotation
			JOINT Spine1
			{
				OFFSET 0.056720 2.048850 -0.042750
				CHANNELS 3 Zrotation Yrotation Xrotation
				JOINT Neck
				{
					OFFSET 0.000000 0.000000 0.000000
					CHANNELS 3 Zrotation Yrotation Xrotation
					JOINT Neck1
					{
						OFFSET -0.054170 1.746240 0.172020
						CHANNELS 3 Zrotation Yrotation Xrotation
						JOINT Head
						{
							OFFSET 0.104070 1.761360 -0.123970
							CHANNELS 3 Zrotation Yrotation Xrotation
							End Site
							{
								OFFSET 0.000000 0.000000 0.000000
							}
						}
					}
				}
				JOINT LeftShoulder
				{
					OFFSET 0.000000 0.000000 0.000000
					CHANNELS 3 Zrotation Yrotation Xrotation
					JOINT LeftArm
					{
						OFFSET 3.362410 1.200890 -0.311210
						CHANNELS 3 Zrotation Yrotation Xrotation
						JOINT LeftForeArm
						{
							OFFSET 4.983000 -0.000000 -0.000000
							CHANNELS 3 Zrotation Yrotation Xrotation
							JOINT LeftHand
							{
								OFFSET 3.483560 -0.000000 -0.000000
								CHANNELS 3 Zrotation Yrotation Xrotation
								JOINT LeftFingerBase
								{
									OFFSET 0.000000 0.000000 0.000000
									CHANNELS 3 Zrotation Yrotation Xrotation
									JOINT LeftHandIndex1
									{
										OFFSET 0.715260 -0.000000 -0.000000
										CHANNELS 3 Zrotation Yrotation Xrotation
										End Site
										{
											OFFSET 0.000000 0.000000 0.000000
										}
									}
								}
								JOINT LThumb
								{
									OFFSET 0.000000 0.000000 0.000000
									CHANNELS 3 Zrotation Yrotation Xrotation
									End Site
									{
										OFFSET 0.000000 0.000000 0.000000
									}
								}
							}
						}
					}
				}
				JOINT RightShoulder
				{
					OFFSET 0.000000 0.000000 0.000000
					CHANNELS 3 Zrotation Yrotation Xrotation
					JOINT RightArm
					{
						OFFSET -3.136600 1.374050 -0.404650
						CHANNELS 3 Zrotation Yrotation Xrotation
						JOINT RightForeArm
						{
							OFFSET -5.241900 -0.000000 -0.000000
							CHANNELS 3 Zrotation Yrotation Xrotation
							JOINT RightHand
							{
								OFFSET -3.444170 -0.000000 -0.000000
								CHANNELS 3 Zrotation Yrotation Xrotation
								JOINT RightFingerBase
								{
									OFFSET 0.000000 0.000000 0.000000
									CHANNELS 3 Zrotation Yrotation Xrotation
									JOINT RightHandIndex1
									{
										OFFSET -0.622530 -0.000000 -0.000000
										CHANNELS 3 Zrotation Yrotation Xrotation
										End Site
										{
											OFFSET 0.000000 0.000000 0.000000
										}
									}
								}
								JOINT RThumb
								{
									OFFSET 0.000000 0.000000 0.000000
									CHANNELS 3 Zrotation Yrotation Xrotation
									End Site
									{
										OFFSET 0.000000 0.000000 0.000000
									}
								}
							}
						}
					}
				}
			}
		}
	}
}
MOTION
Frames: 6
Frame Time: 0.008333
3.400008 16.907673 -1.468273 -159.651385 83.669875 -158.813718 -11.709046 5.589453 0.172373 -3.860797 10.356241 11.621755 -0.139598 2.606683 30.027452 1.107689 2.269631 18.535456 0.482100 -0.000001 -62.057100 8.718168 -0.715536 0.275863 10.530744 -9.183939 -26.583922 2.639691 -0.960245 22.519410 -0.742335 -2.268995 -6.172471 -0.267800 -0.000000 -59.643700 4.154215 -5.443973 -2.056080 0.362397 -5.872431 -2.413911 -6.247708 -5.759913 3.489176 11.332785 -21.548200 -12.153384 -2.161199 -0.102524 -1.141000 0.000000 0.000000 0.000000 1.843907 17.856453 1.011763 -33.646684 2.926815 -2.301400 -1.273938 -62.618005 -0.013844 4.161285 1.242431 0.041323 -0.153947 0.178424 0.000000 0.000000 0.000000 0.000000 0.000000 0.000000 0.000000 17.275388 -20.045580 0.344252 81.785531 -24.405815 -25.036220 4.415707 15.818655 0.008545 1.319280 3.439679 0.036628 0.121344 -0.026444 -0.000000 0.000000 0.000000 0.000000 0.000000 0.000000 0.000000 
3.653075 16.882432 -1.497697 -160.422520 83.129127 -159.867212 -11.813680 5.647415 0.154963 -3.061557 11.078557 10.665177 0.011332 2.695058 32.656150 1.263247 2.920981 19.593600 0.713001 0.000000 -58.147900 8.857186 -0.816106 -0.022122 10.414721 -10.794557 -26.653612 2.553828 -1.199059 24.640017 -0.575913 -1.459360 -5.631736 -0.232900 0.000001 -58.811500 4.305458 -5.372117 -1.877075 0.377992 -5.805633 -2.410617 -6.270701 -5.695461 3.397431 11.312198 -21.420602 -12.114290 -2.205942 -0.107290 -1.130598 0.000000 0.000000 0.000000 1.728327 17.533130 1.007413 -34.296866 3.263532 -2.130958 -1.308440 -62.260371 -0.014448 4.419044 1.352007 0.048445 -0.157508 0.171579 0.000000 0.000000 0.000000 0.000000 0.000000 0.000000 0.000000 17.320099 -19.846887 0.330592 81.329853 -23.733180 -24.406115 4.364301 16.016540 0.008891 0.866746 3.643327 0.024243 0.122537 -0.028023 -0.000000 0.000000 0.000000 0.000000 0.000000 0.000000 0.000000 
3.902486 16.855671 -1.527918 -161.039681 82.586069 -160.727644 -11.915505 5.678216 0.117496 -2.275001 11.863421 9.533209 0.149445 2.774229 35.389963 1.420899 3.852399 20.181821 1.073900 0.000000 -53.645000 8.980922 -0.915134 -0.297792 10.283057 -12.398313 -26.682925 2.481551 -1.398798 26.552622 -0.433039 -0.686412 -5.270160 -0.184100 0.000000 -57.352200 4.455248 -5.276652 -1.696930 0.389490 -5.714207 -2.409551 -6.303631 -5.606273 3.299649 11.299709 -21.271245 -12.072340 -2.253628 -0.112367 -1.119649 0.000000 0.000000 0.000000 1.587533 17.184393 1.000795 -35.040058 3.605225 -1.834355 -1.348711 -61.855424 -0.014750 4.631804 1.463344 0.055668 -0.160565 0.163192 -0.000000 0.000000 0.000000 0.000000 0.000000 0.000000 0.000000 17.367273 -19.616780 0.325186 80.855031 -22.953807 -23.717527 4.310084 16.185430 0.009180 0.412026 3.834238 0.010054 0.123542 -0.029642 -0.000000 0.000000 0.000000 0.000000 0.000000 0.000000 0.000000 
4.148191 16.828091 -1.559109 -161.485671 82.056398 -161.366760 -12.012950 5.681526 0.060842 -1.533219 12.676621 8.245241 0.273342 2.849573 38.170170 1.572585 5.024932 20.244513 1.537200 0.000000 -48.945000 9.083059 -1.012430 -0.535075 10.139199 -13.879948 -26.646418 2.426520 -1.558357 28.226187 -0.319150 0.006868 -5.140140 -0.131300 0.000001 -55.304700 4.608863 -5.155280 -1.528902 0.398494 -5.596372 -2.412616 -6.344709 -5.490576 3.197749 11.287610 -21.092873 -12.024491 -2.303768 -0.117778 -1.107309 0.000000 0.000000 0.000000 1.418707 16.828693 0.991413 -35.873022 3.940107 -1.409935 -1.395263 -61.389568 -0.014739 4.796964 1.574733 0.062887 -0.163119 0.153358 -0.000000 0.000000 0.000000 0.000000 0.000000 0.000000 0.000000 17.406862 -19.346136 0.326564 80.364132 -22.078473 -22.983253 4.256046 16.333774 0.009385 -0.021716 3.997838 -0.004735 0.124321 -0.031273 -0.000000 0.000000 0.000000 0.000000 0.000000 0.000000 0.000000 
4.390222 16.800506 -1.591506 -161.790715 81.552760 -161.809520 -12.103225 5.658567 -0.012935 -0.872101 13.487105 6.824528 0.382922 2.925641 40.938930 1.712075 6.370847 19.763558 2.050200 -0.000000 -44.438400 9.162674 -1.107522 -0.724899 9.984842 -15.156700 -26.526481 2.388946 -1.680166 29.655955 -0.236683 0.584192 -5.267505 -0.084000 -0.000000 -52.800500 4.764733 -5.007791 -1.381426 0.405621 -5.451989 -2.420458 -6.390566 -5.348316 3.094530 11.270267 -20.881937 -11.968916 -2.355303 -0.123461 -1.093095 0.000000 0.000000 0.000000 1.226031 16.488631 0.978622 -36.804728 4.250581 -0.864162 -1.449216 -60.839827 -0.014432 4.909758 1.685461 0.069702 -0.165136 0.142265 -0.000000 0.000000 0.000000 0.000000 0.000000 0.000000 0.000000 17.431163 -19.030929 0.331947 79.851102 -21.115612 -22.180237 4.204273 16.468446 0.009505 -0.424941 4.130469 -0.019624 0.124912 -0.032876 -0.000000 0.000000 0.000000 0.000000 0.000000 0.000000 0.000000 
4.628751 16.773776 -1.625273 -162.025503 81.084571 -162.129061 -12.182167 5.611833 -0.100930 -0.328759 14.267302 5.300209 0.478604 3.005185 43.640515 1.835797 7.811940 18.757646 2.548700 -0.000000 -40.447600 9.223639 -1.199060 -0.865070 9.814521 -16.185086 -26.309173 2.365985 -1.768248 30.850451 -0.186026 1.018589 -5.645517 -0.048401 -0.000000 -50.058300 4.917474 -4.836332 -1.258034 0.410416 -5.283087 -2.433721 -6.439382 -5.181641 2.988884 11.240923 -20.626291 -11.900541 -2.409313 -0.129586 -1.075609 0.000000 0.000000 0.000000 1.003754 16.166246 0.962867 -37.827010 4.554705 -0.207829 -1.510822 -60.203983 -0.013839 4.969822 1.790317 0.075816 -0.166578 0.130001 -0.000000 0.000000 0.000000 0.000000 0.000000 0.000000 0.000000 17.436257 -18.658264 0.340043 79.318517 -20.082861 -21.395572 4.157486 16.604348 0.009515 -0.759667 4.214426 -0.032413 0.125194 -0.034547 -0.000000 0.000000 0.000000 0.000000 0.000000 0.000000 0.000000 
